<?xml version="1.0" encoding="utf-8"?>
<!-- Generator: Adobe Illustrator 25.0.0, SVG Export Plug-In . SVG Version: 6.00 Build 0)  -->
<svg version="1.1" id="Icons" xmlns="http://www.w3.org/2000/svg" xmlns:xlink="http://www.w3.org/1999/xlink" x="0px" y="0px"
	 viewBox="0 0 60 60" style="enable-background:new 0 0 60 60;" xml:space="preserve">
<style type="text/css">
	.st0{fill:#FFFFFF;}
</style>
<rect class="st0" width="60" height="60"/>
<path d="M25.7998047,47.8496094c-5.762207,0-10.449707-4.6875-10.449707-10.4492188
	c0-5.7626953,4.6875-10.4501953,10.449707-10.4501953c5.7626953,0,10.4501953,4.6875,10.4501953,10.4501953
	C36.25,43.1621094,31.5625,47.8496094,25.7998047,47.8496094z M25.7998047,28.4501953
	c-4.9350586,0-8.949707,4.0146484-8.949707,8.9501953c0,4.9345703,4.0146484,8.9492188,8.949707,8.9492188
	S34.75,42.3349609,34.75,37.4003906C34.75,32.4648438,30.7348633,28.4501953,25.7998047,28.4501953z"/>
<path d="M45.9003906,53.9501953H5.7001953c-0.6181641,0-1.050293-0.4316406-1.050293-1.0498047v-28.800293
	c0-0.6181641,0.4321289-1.050293,1.050293-1.050293h10.1362305l2.0927734-4.1850586
	c0.0361328-0.0722656,0.0834961-0.1376953,0.140625-0.1948242C18.2275391,18.5117188,18.4897461,18.25,18.8999023,18.25h13.800293
	c0.3671875,0,0.8740234,0.2475586,1.0136719,0.7021484l2.0029297,4.0976562h10.1835938
	c0.6181641,0,1.0498047,0.4321289,1.0498047,1.050293v28.800293C46.9501953,53.5185547,46.5185547,53.9501953,45.9003906,53.9501953
	z M6.1499023,52.4501953h39.300293V24.5498047H35.5c-0.1533203,0-0.5107422,0-0.8300781-0.3193359
	c-0.0585938-0.0585938-0.1074219-0.1264648-0.1435547-0.2006836L32.4335938,19.75H19.1635742l-2.0463867,4.0927734
	c-0.1103516,0.4018555-0.4858398,0.7070312-0.9169922,0.7070312H6.1499023V52.4501953z M15.6499023,23.5981445
	c0,0.0004883,0,0.0014648,0,0.0019531C15.6499023,23.5996094,15.6499023,23.5986328,15.6499023,23.5981445z M32.25,19.2001953
	L32.25,19.2001953L32.25,19.2001953z"/>
<path d="M54.2998047,41.6503906h-8.7001953v-1.5h8.25V12.25H43.7998047c-0.4296875,0-0.8037109-0.3032227-0.9160156-0.703125
	l-2.0449219-3.9970703H27.5634766l-2.0517578,4.1035156C25.3706055,12.1044922,24.8657227,12.3500977,24.5,12.3500977h-9.9501953
	v11.5498047h-1.5v-12c0-0.6181641,0.4321289-1.0498047,1.050293-1.0498047h10.1362305l2.0517578-4.1035156
	c0.1411133-0.4511719,0.6459961-0.6967773,1.0117188-0.6967773h13.7998047c0.3642578,0,0.8671875,0.2436523,1.0107422,0.6918945
	L44.1611328,10.75h10.1386719c0.6181641,0,1.0498047,0.4316406,1.0498047,1.0498047v28.7998047
	C55.3496094,41.21875,54.9179688,41.6503906,54.2998047,41.6503906z M27.75,7L27.75,7L27.75,7z M40.6503906,7L40.6503906,7
	L40.6503906,7z"/>
</svg>
