<?xml version="1.0" encoding="utf-8"?>
<!-- Generator: Adobe Illustrator 25.0.0, SVG Export Plug-In . SVG Version: 6.00 Build 0)  -->
<svg version="1.1" id="Icons" xmlns="http://www.w3.org/2000/svg" xmlns:xlink="http://www.w3.org/1999/xlink" x="0px" y="0px"
	 viewBox="0 0 60 60" style="enable-background:new 0 0 60 60;" xml:space="preserve">
<style type="text/css">
	.st0{fill:#FFFFFF;}
	.st1{fill:none;stroke:#000000;stroke-width:1.5;stroke-linejoin:round;stroke-miterlimit:10;}
	.st2{fill:none;stroke:#000000;stroke-width:1.5;stroke-linejoin:round;}
</style>
<rect class="st0" width="60" height="60"/>
<path class="st1" d="M20.7999992,16.2999992c0-2.6000004,0.3999996-5.1999998,1.2999992-7.6000004l0,0c0,0,0-0.1000004-0.1000004,0
	l0,0C10.6999998,13.3000002,5.1999998,26.2999992,9.8999996,37.7000008S27.6000004,54.5999985,39,49.9000015
	C44.7999992,47.5,49.2999992,42.9000015,51.5,37l0,0v-0.0999985l0,0c-11.2999992,4.7000008-24.2999992-0.7000008-28.8999996-12
	C21.3999996,22.2000008,20.7999992,19.2000008,20.7999992,16.2999992z"/>
<polygon class="st2" points="34.7000008,27.7000008 38.9000015,25 43.0999985,27.7000008 43.0999985,27.7000008 
	41.9000015,22.8999996 45.7000008,19.7000008 40.7999992,19.2999992 40.7999992,19.2999992 38.9000015,14.6999998 37,19.2999992 
	32.0999985,19.7000008 35.9000015,22.8999996 "/>
</svg>
