<svg id="Layer_1" data-name="Layer 1" xmlns="http://www.w3.org/2000/svg" viewBox="0 0 60 60"><defs><style>.cls-1{fill:none;stroke:#151310;stroke-miterlimit:10;stroke-width:1.5px;}.cls-2{fill:#010101;}</style></defs><circle class="cls-1" cx="30" cy="23.88" r="9.52" transform="translate(-0.16 47.56) rotate(-76.66)"/><path class="cls-1" d="M40.24,10.51a1.65,1.65,0,0,1-1.33-.82l-1.51-3a1.61,1.61,0,0,0-1.32-.81H23.92a1.61,1.61,0,0,0-1.32.81l-1.51,3a1.65,1.65,0,0,1-1.33.82H10.87a.91.91,0,0,0-.91.91V38.49a.92.92,0,0,0,.91.92H49.13a.92.92,0,0,0,.91-.92V11.42a.91.91,0,0,0-.91-.91Z"/><path class="cls-2" d="M20.39,53.13a6.44,6.44,0,0,1-1.11-4.08A6.4,6.4,0,0,1,20.39,45a3.94,3.94,0,0,1,3.24-1.38A3.94,3.94,0,0,1,26.87,45,6.4,6.4,0,0,1,28,49.05a6.44,6.44,0,0,1-1.12,4.08,3.94,3.94,0,0,1-3.24,1.38A3.94,3.94,0,0,1,20.39,53.13Zm5.38-1a5.5,5.5,0,0,0,.72-3.11,5.53,5.53,0,0,0-.72-3.12,2.43,2.43,0,0,0-2.14-1,2.42,2.42,0,0,0-2.13,1,5.53,5.53,0,0,0-.72,3.12,5.5,5.5,0,0,0,.72,3.11,2.42,2.42,0,0,0,2.13,1.05A2.43,2.43,0,0,0,25.77,52.16Z"/><path class="cls-2" d="M30.32,43.78h1.44V54.32H30.32Z"/><path class="cls-2" d="M35.36,54.26a5.37,5.37,0,0,1-1.54-.65l.49-1.18a5.79,5.79,0,0,0,2.83.78,2.59,2.59,0,0,0,1.61-.43,1.42,1.42,0,0,0,.56-1.2,1.5,1.5,0,0,0-.39-1.07,2.39,2.39,0,0,0-1.2-.63l-1.19-.34a3.91,3.91,0,0,1-2-1.06,2.7,2.7,0,0,1-.62-1.85,2.84,2.84,0,0,1,.91-2.22,3.62,3.62,0,0,1,2.49-.81,7.46,7.46,0,0,1,1.59.18,6.94,6.94,0,0,1,1.52.49L40,45.46a7.63,7.63,0,0,0-2.66-.58,2.33,2.33,0,0,0-1.44.4,1.39,1.39,0,0,0-.5,1.13,1.46,1.46,0,0,0,.39,1.06,2.43,2.43,0,0,0,1.2.63l1.19.34a4,4,0,0,1,2,1.07,2.67,2.67,0,0,1,.62,1.85,2.93,2.93,0,0,1-.95,2.3,3.91,3.91,0,0,1-2.63.83A6.74,6.74,0,0,1,35.36,54.26Z"/></svg>